<svg width="59" height="59" viewBox="0 0 59 59" fill="none" xmlns="http://www.w3.org/2000/svg">
<g id="ri:whatsapp-fill">
<path id="Vector" d="M29.5025 4.91669C43.0798 4.91669 54.0858 15.9226 54.0858 29.5C54.0858 43.0774 43.0798 54.0834 29.5025 54.0834C25.158 54.0908 20.8899 52.9411 17.1371 50.7523L4.92897 54.0834L8.25264 41.8704C6.06216 38.1163 4.91152 33.8464 4.91914 29.5C4.91914 15.9226 15.9251 4.91669 29.5025 4.91669ZM21.1245 17.9459L20.6328 17.9655C20.3149 17.9874 20.0043 18.0709 19.7183 18.2114C19.4518 18.3626 19.2083 18.5513 18.9956 18.7719C18.7006 19.0496 18.5334 19.2906 18.3539 19.5241C17.4446 20.7063 16.9551 22.1577 16.9625 23.6492C16.9674 24.8538 17.2821 26.0264 17.7738 27.1228C18.7792 29.3402 20.4337 31.6879 22.6167 33.8636C23.1428 34.3872 23.659 34.9133 24.2146 35.4025C26.9272 37.7905 30.1595 39.5127 33.6546 40.4322L35.0509 40.6461C35.5057 40.6707 35.9605 40.6363 36.4178 40.6141C37.1336 40.5764 37.8325 40.3826 38.4656 40.0463C38.7872 39.88 39.1014 39.6995 39.4071 39.5054C39.4071 39.5054 39.5112 39.435 39.7144 39.2842C40.0463 39.0384 40.2503 38.8638 40.5256 38.5762C40.7321 38.3631 40.9042 38.1157 41.0419 37.8338C41.2336 37.4331 41.4254 36.6685 41.5041 36.0318C41.5631 35.5451 41.5458 35.2796 41.5385 35.1149C41.5286 34.8518 41.3098 34.5789 41.0714 34.4634L39.6406 33.8218C39.6406 33.8218 37.5019 32.8901 36.1941 32.2951C36.0571 32.2355 35.9105 32.2014 35.7614 32.1944C35.5932 32.1768 35.4231 32.1955 35.2628 32.2494C35.1025 32.3033 34.9556 32.391 34.8321 32.5066C34.8198 32.5016 34.6551 32.6418 32.8778 34.7953C32.7757 34.9323 32.6352 35.0359 32.4741 35.0929C32.313 35.1498 32.1386 35.1574 31.9731 35.1149C31.8129 35.0722 31.656 35.0179 31.5036 34.9526C31.1987 34.8248 31.093 34.7756 30.8841 34.6871C29.4727 34.0723 28.1662 33.2403 27.0122 32.2214C26.7024 31.951 26.4148 31.656 26.1198 31.3708C25.1527 30.4445 24.3099 29.3967 23.6123 28.2536L23.4673 28.0201C23.3647 27.8623 23.2805 27.6932 23.2165 27.5161C23.1231 27.1548 23.3665 26.8647 23.3665 26.8647C23.3665 26.8647 23.9638 26.2108 24.2416 25.8568C24.5121 25.5126 24.7407 25.1783 24.8882 24.9398C25.1783 24.4727 25.2692 23.9934 25.1168 23.6221C24.4285 21.9406 23.7172 20.2682 22.983 18.6047C22.8379 18.2753 22.4077 18.0393 22.0168 17.9926C21.8841 17.9762 21.7513 17.9631 21.6186 17.9532C21.2885 17.9343 20.9575 17.9376 20.6279 17.9631L21.1245 17.9459Z" fill="white"/>
</g>
</svg>
